<svg class="diagram-root" style="background: #f5f6f6" xmlns="http://www.w3.org/2000/svg" xmlns:xlink="http://www.w3.org/1999/xlink"><style>.diagram-root { font-family: "Helvetica Neue", sans-serif; font-size: 12px; } .t { overflow: visible; } .t-bg { y: 40; fill: #fff;   } .th { fill: #005aa0;   } .tht { fill: #fff; font-size: 14px;  } .tf { fill: #323c46; overflow: visible; } .tf.pk { fill: #005aa0; font-weight: bold; } .tf.fk { font-weight: bold; } .ty { fill: #adb1b5; font-weight: normal; text-anchor: end; } .r { fill: transparent; stroke: #c3c3c3; stroke-width: 1; } .l { stroke: 1; } .i { fill: #c2c7ce; stroke: #c2c7ce; } .i.ix { fill: #afb3b6; stroke: #000; } .fa { fill: transparent; overflow: visible; } .fa .bg.hover { fill: #f7f7f7; } .c { cy: 12; r: 4; stroke: #d2d2dc; fill: #d2d2dc; } .hr { fill: transparent; stroke: #323c46; stroke-opacity: 0.035; stroke-width: 13; } .dc { stroke: #fa5a3c; fill: #fa5a3c; } .x { stroke: white; stroke-width: 1; } .hl .th { fill: #1b9bff; } .hl .tht {  } .fhl .bg { fill: #e7f4ff; } .fhls .bg {  } .r.hl { stroke: #1b9bff; } .dim { opacity: 0.25; }</style><g class="drawing-wrapper" transform="translate(-6, -13) scale(1,1)"><g class="rs"><path d="M 613 448 m -1, 0 a 1,1 0 1,0 2,0 a 1,1 0 1,0 -2,0 M 613 448 m -0.5, 0 a 0.5,0.5 0 1,0 1,0 a 0.5,0.5 0 1,0 -1,0  M613 448 L613 448 601 448 M 613 454 m -1, 0 a 1,1 0 1,0 2,0 a 1,1 0 1,0 -2,0 M 613 454 m -0.5, 0 a 0.5,0.5 0 1,0 1,0 a 0.5,0.5 0 1,0 -1,0  M613 454 L613 454 606 448 613 442 M 613 442 m -1, 0 a 1,1 0 1,0 2,0 a 1,1 0 1,0 -2,0 M 613 442 m -0.5, 0 a 0.5,0.5 0 1,0 1,0 a 0.5,0.5 0 1,0 -1,0  M601 448 C 495 448, 516 100, 566 100 M 578 100 m -1, 0 a 1,1 0 1,0 2,0 a 1,1 0 1,0 -2,0 M 578 100 m -0.5, 0 a 0.5,0.5 0 1,0 1,0 a 0.5,0.5 0 1,0 -1,0  M578 100 L578 100 566 100 M572 106 L572 106 572 94" id="h150979361" class="r"></path><path d="M 613 473 m -1, 0 a 1,1 0 1,0 2,0 a 1,1 0 1,0 -2,0 M 613 473 m -0.5, 0 a 0.5,0.5 0 1,0 1,0 a 0.5,0.5 0 1,0 -1,0  M613 473 L613 473 601 473 M 613 479 m -1, 0 a 1,1 0 1,0 2,0 a 1,1 0 1,0 -2,0 M 613 479 m -0.5, 0 a 0.5,0.5 0 1,0 1,0 a 0.5,0.5 0 1,0 -1,0  M613 479 L613 479 606 473 613 467 M 613 467 m -1, 0 a 1,1 0 1,0 2,0 a 1,1 0 1,0 -2,0 M 613 467 m -0.5, 0 a 0.5,0.5 0 1,0 1,0 a 0.5,0.5 0 1,0 -1,0  M601 473 Q 565.68 473, 530.36 404 T 459.72 335 M 447.72 335 m -1, 0 a 1,1 0 1,0 2,0 a 1,1 0 1,0 -2,0 M 447.72 335 m -0.5, 0 a 0.5,0.5 0 1,0 1,0 a 0.5,0.5 0 1,0 -1,0  M447.72 335 L447.72 335 459.72 335 M453.72 341 L453.72 341 453.72 329" id="h797802545" class="r"></path><path d="M 347 175 m -1, 0 a 1,1 0 1,0 2,0 a 1,1 0 1,0 -2,0 M 347 175 m -0.5, 0 a 0.5,0.5 0 1,0 1,0 a 0.5,0.5 0 1,0 -1,0  M347 175 L347 175 335 175 M 347 181 m -1, 0 a 1,1 0 1,0 2,0 a 1,1 0 1,0 -2,0 M 347 181 m -0.5, 0 a 0.5,0.5 0 1,0 1,0 a 0.5,0.5 0 1,0 -1,0  M347 181 L347 181 340 175 347 169 M 347 169 m -1, 0 a 1,1 0 1,0 2,0 a 1,1 0 1,0 -2,0 M 347 169 m -0.5, 0 a 0.5,0.5 0 1,0 1,0 a 0.5,0.5 0 1,0 -1,0  M335 175 Q 310.51 175, 286.02 139 T 237.04 103 M 225.04 103 m -1, 0 a 1,1 0 1,0 2,0 a 1,1 0 1,0 -2,0 M 225.04 103 m -0.5, 0 a 0.5,0.5 0 1,0 1,0 a 0.5,0.5 0 1,0 -1,0  M225.04 103 L225.04 103 237.04 103 M231.04 109 L231.04 109 231.04 97" id="h1881973226" class="r"></path><path d="M 459.03 200 m -1, 0 a 1,1 0 1,0 2,0 a 1,1 0 1,0 -2,0 M 459.03 200 m -0.5, 0 a 0.5,0.5 0 1,0 1,0 a 0.5,0.5 0 1,0 -1,0  M459.03 200 L459.03 200 471.03 200 M 459.03 206 m -1, 0 a 1,1 0 1,0 2,0 a 1,1 0 1,0 -2,0 M 459.03 206 m -0.5, 0 a 0.5,0.5 0 1,0 1,0 a 0.5,0.5 0 1,0 -1,0  M459.03 206 L459.03 206 466.03 200 459.03 194 M 459.03 194 m -1, 0 a 1,1 0 1,0 2,0 a 1,1 0 1,0 -2,0 M 459.03 194 m -0.5, 0 a 0.5,0.5 0 1,0 1,0 a 0.5,0.5 0 1,0 -1,0  M471.03 200 Q 494.78 200, 518.52 150 T 566 100 M 578 100 m -1, 0 a 1,1 0 1,0 2,0 a 1,1 0 1,0 -2,0 M 578 100 m -0.5, 0 a 0.5,0.5 0 1,0 1,0 a 0.5,0.5 0 1,0 -1,0  M578 100 L578 100 566 100 M572 106 L572 106 572 94" id="h719062090" class="r"></path><path d="M 898 249 m -1, 0 a 1,1 0 1,0 2,0 a 1,1 0 1,0 -2,0 M 898 249 m -0.5, 0 a 0.5,0.5 0 1,0 1,0 a 0.5,0.5 0 1,0 -1,0  M898 249 L898 249 886 249 M 898 255 m -1, 0 a 1,1 0 1,0 2,0 a 1,1 0 1,0 -2,0 M 898 255 m -0.5, 0 a 0.5,0.5 0 1,0 1,0 a 0.5,0.5 0 1,0 -1,0  M898 255 L898 255 891 249 898 243 M 898 243 m -1, 0 a 1,1 0 1,0 2,0 a 1,1 0 1,0 -2,0 M 898 243 m -0.5, 0 a 0.5,0.5 0 1,0 1,0 a 0.5,0.5 0 1,0 -1,0  M886 249 Q 853.35 249, 820.69 174.5 T 755.38 100 M 743.38 100 m -1, 0 a 1,1 0 1,0 2,0 a 1,1 0 1,0 -2,0 M 743.38 100 m -0.5, 0 a 0.5,0.5 0 1,0 1,0 a 0.5,0.5 0 1,0 -1,0  M743.38 100 L743.38 100 755.38 100 M749.38 106 L749.38 106 749.38 94" id="h3158163120" class="r"></path><path d="M 898 274 m -1, 0 a 1,1 0 1,0 2,0 a 1,1 0 1,0 -2,0 M 898 274 m -0.5, 0 a 0.5,0.5 0 1,0 1,0 a 0.5,0.5 0 1,0 -1,0  M898 274 L898 274 886 274 M 898 280 m -1, 0 a 1,1 0 1,0 2,0 a 1,1 0 1,0 -2,0 M 898 280 m -0.5, 0 a 0.5,0.5 0 1,0 1,0 a 0.5,0.5 0 1,0 -1,0  M898 280 L898 280 891 274 898 268 M 898 268 m -1, 0 a 1,1 0 1,0 2,0 a 1,1 0 1,0 -2,0 M 898 268 m -0.5, 0 a 0.5,0.5 0 1,0 1,0 a 0.5,0.5 0 1,0 -1,0  M886 274 Q 864.77 274, 843.54 286 T 801.07 298 M 789.07 298 m -1, 0 a 1,1 0 1,0 2,0 a 1,1 0 1,0 -2,0 M 789.07 298 m -0.5, 0 a 0.5,0.5 0 1,0 1,0 a 0.5,0.5 0 1,0 -1,0  M789.07 298 L789.07 298 801.07 298 M795.07 304 L795.07 304 795.07 292" id="h552460788" class="r"></path><path d="M 189.38 310 m -1, 0 a 1,1 0 1,0 2,0 a 1,1 0 1,0 -2,0 M 189.38 310 m -0.5, 0 a 0.5,0.5 0 1,0 1,0 a 0.5,0.5 0 1,0 -1,0  M189.38 310 L189.38 310 201.38 310 M 189.38 316 m -1, 0 a 1,1 0 1,0 2,0 a 1,1 0 1,0 -2,0 M 189.38 316 m -0.5, 0 a 0.5,0.5 0 1,0 1,0 a 0.5,0.5 0 1,0 -1,0  M189.38 316 L189.38 316 196.38 310 189.38 304 M 189.38 304 m -1, 0 a 1,1 0 1,0 2,0 a 1,1 0 1,0 -2,0 M 189.38 304 m -0.5, 0 a 0.5,0.5 0 1,0 1,0 a 0.5,0.5 0 1,0 -1,0  M201.38 310 Q 220.79 310, 240.19 322.5 T 279 335 M 291 335 m -1, 0 a 1,1 0 1,0 2,0 a 1,1 0 1,0 -2,0 M 291 335 m -0.5, 0 a 0.5,0.5 0 1,0 1,0 a 0.5,0.5 0 1,0 -1,0  M291 335 L291 335 279 335 M285 341 L285 341 285 329" id="h2292935585" class="r"></path></g><g class="hrs"></g><g class="ts"><svg width="165.38" height="175" x="578" y="43" id="h1537667952" class="t"><rect height="40" width="165.38" class="th"></rect><text x="13" y="25" class="tht">User</text><rect height="135" width="165.38" class="t-bg"></rect><text x="13" y="61" class="tf pk">id<tspan x="152.38" class="ty">int</tspan></text><path d="M7,14A2,2 0 0,1 5,12A2,2 0 0,1 7,10A2,2 0 0,1 9,12A2,2 0 0,1 7,14M12.65,10C11.83,7.67 9.61,6 7, 6A6, 6 0 0, 0 1, 12A6, 6 0 0, 0 7, 18C9.61, 18 11.83, 16.33 12.65, 14H17V18H21V14H23V10H12.65Z" class="i pk" transform="translate(119.706171875, 48) scale(0.65)"></path><text x="13" y="86" class="tf">name<tspan x="152.38" class="ty">varcher(255)</tspan></text><text x="13" y="111" class="tf">password<tspan x="152.38" class="ty">varcher(255)</tspan></text><text x="13" y="136" class="tf">mail<tspan x="152.38" class="ty">varcher(255)</tspan></text><text x="13" y="161" class="tf">isActive<tspan x="152.38" class="ty">bool</tspan></text></svg><svg width="143.39" height="175" x="898" y="117" id="h2475179903" class="t"><rect height="40" width="143.39" class="th"></rect><text x="13" y="25" class="tht">LogConfirm</text><rect height="135" width="143.39" class="t-bg"></rect><text x="13" y="61" class="tf pk">id<tspan x="130.39" class="ty">int</tspan></text><path d="M7,14A2,2 0 0,1 5,12A2,2 0 0,1 7,10A2,2 0 0,1 9,12A2,2 0 0,1 7,14M12.65,10C11.83,7.67 9.61,6 7, 6A6, 6 0 0, 0 1, 12A6, 6 0 0, 0 7, 18C9.61, 18 11.83, 16.33 12.65, 14H17V18H21V14H23V10H12.65Z" class="i pk" transform="translate(97.71617187499999, 48) scale(0.65)"></path><text x="13" y="86" class="tf">hasConfirmed<tspan x="130.39" class="ty">bool</tspan></text><text x="13" y="111" class="tf">created<tspan x="130.39" class="ty">date</tspan></text><text x="13" y="136" class="tf fk">userId<tspan x="130.39" class="ty">int</tspan></text><text x="13" y="161" class="tf fk">bookingId<tspan x="130.39" class="ty">int</tspan></text></svg><svg width="176.07" height="250" x="613" y="241" id="h235943135" class="t"><rect height="40" width="176.07" class="th"></rect><text x="13" y="25" class="tht">Booking</text><rect height="210" width="176.07" class="t-bg"></rect><text x="13" y="61" class="tf pk">id<tspan x="163.07" class="ty">int</tspan></text><path d="M7,14A2,2 0 0,1 5,12A2,2 0 0,1 7,10A2,2 0 0,1 9,12A2,2 0 0,1 7,14M12.65,10C11.83,7.67 9.61,6 7, 6A6, 6 0 0, 0 1, 12A6, 6 0 0, 0 7, 18C9.61, 18 11.83, 16.33 12.65, 14H17V18H21V14H23V10H12.65Z" class="i pk" transform="translate(130.396171875, 48) scale(0.65)"></path><text x="13" y="86" class="tf">start<tspan x="163.07" class="ty">date</tspan></text><text x="13" y="111" class="tf">end<tspan x="163.07" class="ty">date</tspan></text><text x="13" y="136" class="tf">payed<tspan x="163.07" class="ty">bool</tspan></text><text x="13" y="161" class="tf">message<tspan x="163.07" class="ty">varchar(255)?</tspan></text><text x="13" y="186" class="tf">createAt<tspan x="163.07" class="ty">date</tspan></text><text x="13" y="211" class="tf fk">userID<tspan x="163.07" class="ty">int</tspan></text><text x="13" y="236" class="tf fk">sportHallID<tspan x="163.07" class="ty">int</tspan></text></svg><svg width="156.72" height="150" x="291" y="278" id="h2723448649" class="t"><rect height="40" width="156.72" class="th"></rect><text x="13" y="25" class="tht">SportHall</text><rect height="110" width="156.72" class="t-bg"></rect><text x="13" y="61" class="tf pk">id<tspan x="143.72" class="ty">int</tspan></text><path d="M7,14A2,2 0 0,1 5,12A2,2 0 0,1 7,10A2,2 0 0,1 9,12A2,2 0 0,1 7,14M12.65,10C11.83,7.67 9.61,6 7, 6A6, 6 0 0, 0 1, 12A6, 6 0 0, 0 7, 18C9.61, 18 11.83, 16.33 12.65, 14H17V18H21V14H23V10H12.65Z" class="i pk" transform="translate(111.046171875, 48) scale(0.65)"></path><text x="13" y="86" class="tf">name<tspan x="143.72" class="ty">varchar(255)</tspan></text><text x="13" y="111" class="tf">address<tspan x="143.72" class="ty">varchar(255)</tspan></text><text x="13" y="136" class="tf">mainPicture<tspan x="143.72" class="ty">varchar</tspan></text></svg><svg width="161.38" height="150" x="28" y="178" id="h4075251281" class="t"><rect height="40" width="161.38" class="th"></rect><text x="13" y="25" class="tht">Picture</text><rect height="110" width="161.38" class="t-bg"></rect><text x="13" y="61" class="tf pk">id<tspan x="148.38" class="ty">int</tspan></text><path d="M7,14A2,2 0 0,1 5,12A2,2 0 0,1 7,10A2,2 0 0,1 9,12A2,2 0 0,1 7,14M12.65,10C11.83,7.67 9.61,6 7, 6A6, 6 0 0, 0 1, 12A6, 6 0 0, 0 7, 18C9.61, 18 11.83, 16.33 12.65, 14H17V18H21V14H23V10H12.65Z" class="i pk" transform="translate(115.706171875, 48) scale(0.65)"></path><text x="13" y="86" class="tf">name<tspan x="148.38" class="ty">varcher(255)</tspan></text><text x="13" y="111" class="tf">fileName<tspan x="148.38" class="ty">varcher(255)</tspan></text><text x="13" y="136" class="tf fk">sportHallId<tspan x="148.38" class="ty">int</tspan></text></svg><svg width="112.03" height="100" x="347" y="118" id="h2029158281" class="t"><rect height="40" width="112.03" class="th"></rect><text x="13" y="25" class="tht">UserRole</text><rect height="60" width="112.03" class="t-bg"></rect><text x="13" y="61" class="tf pk">roleId<tspan x="99.03" class="ty">int</tspan></text><path d="M7,14A2,2 0 0,1 5,12A2,2 0 0,1 7,10A2,2 0 0,1 9,12A2,2 0 0,1 7,14M12.65,10C11.83,7.67 9.61,6 7, 6A6, 6 0 0, 0 1, 12A6, 6 0 0, 0 7, 18C9.61, 18 11.83, 16.33 12.65, 14H17V18H21V14H23V10H12.65Z" class="i pk" transform="translate(66.356171875, 48) scale(0.65)"></path><text x="13" y="86" class="tf pk">userId<tspan x="99.03" class="ty">int</tspan></text><path d="M7,14A2,2 0 0,1 5,12A2,2 0 0,1 7,10A2,2 0 0,1 9,12A2,2 0 0,1 7,14M12.65,10C11.83,7.67 9.61,6 7, 6A6, 6 0 0, 0 1, 12A6, 6 0 0, 0 7, 18C9.61, 18 11.83, 16.33 12.65, 14H17V18H21V14H23V10H12.65Z" class="i pk" transform="translate(66.356171875, 73) scale(0.65)"></path></svg><svg width="144.04" height="100" x="81" y="46" id="h53935491" class="t"><rect height="40" width="144.04" class="th"></rect><text x="13" y="25" class="tht">Role</text><rect height="60" width="144.04" class="t-bg"></rect><text x="13" y="61" class="tf pk">id<tspan x="131.04" class="ty">int</tspan></text><path d="M7,14A2,2 0 0,1 5,12A2,2 0 0,1 7,10A2,2 0 0,1 9,12A2,2 0 0,1 7,14M12.65,10C11.83,7.67 9.61,6 7, 6A6, 6 0 0, 0 1, 12A6, 6 0 0, 0 7, 18C9.61, 18 11.83, 16.33 12.65, 14H17V18H21V14H23V10H12.65Z" class="i pk" transform="translate(98.36617187499999, 48) scale(0.65)"></path><text x="13" y="86" class="tf">name<tspan x="131.04" class="ty">varcher(255)</tspan></text></svg></g></g><text class="qdbd-link" x="10" y="20">www.quickdatabasediagrams.com</text></svg>